<svg id="Capa_1" enable-background="new 0 0 512 512" height="512" viewBox="0 0 512 512" width="512" xmlns="http://www.w3.org/2000/svg"><g><path d="m286 93.233c-8.284 0-15-6.716-15-15v-33.233c0-8.271-6.729-15-15-15s-15 6.729-15 15v33.233c0 8.284-6.716 15-15 15s-15-6.716-15-15v-33.233c0-24.813 20.187-45 45-45s45 20.187 45 45v33.233c0 8.284-6.716 15-15 15z" fill="#ffb454"/><path d="m271 45v33.233c0 8.284 6.716 15 15 15s15-6.716 15-15v-33.233c0-24.813-20.187-45-45-45v30c8.272 0 15 6.729 15 15z" fill="#ff8e00"/><path d="m256 512c-41.355 0-75-33.645-75-75 0-8.284 6.716-15 15-15h120c8.284 0 15 6.716 15 15 0 41.355-33.644 75-75 75z" fill="#ffb454"/><path d="m316 422h-60v90c41.355 0 75-33.645 75-75 0-8.284-6.716-15-15-15z" fill="#ff8e00"/><path d="m466 452h-420c-6.01 0-11.439-3.587-13.797-9.115s-1.189-11.929 2.971-16.267c42.448-44.268 65.826-102.425 65.826-163.756v-47.862c0-85.467 69.533-155 155-155s155 69.533 155 155v47.862c0 61.332 23.378 119.488 65.827 163.756 4.159 4.338 5.328 10.739 2.97 16.267-2.357 5.528-7.787 9.115-13.797 9.115z" fill="#ffe278"/><path d="m466 452c6.01 0 11.439-3.587 13.797-9.115s1.189-11.929-2.97-16.267c-42.449-44.268-65.827-102.425-65.827-163.756v-47.862c0-85.467-69.533-155-155-155v392z" fill="#ffb454"/><path d="m466 230c-8.284 0-15-6.716-15-15 0-52.087-20.283-101.056-57.114-137.886-5.858-5.858-5.858-15.355 0-21.213 5.857-5.858 15.355-5.858 21.213 0 42.497 42.496 65.901 98.999 65.901 159.099 0 8.284-6.716 15-15 15z" fill="#08475e"/><path d="m46 230c-8.284 0-15-6.716-15-15 0-60.1 23.404-116.602 65.901-159.099 5.857-5.858 15.355-5.858 21.213 0s5.858 15.355 0 21.213c-36.83 36.831-57.114 85.8-57.114 137.886 0 8.284-6.716 15-15 15z" fill="#0a789b"/></g></svg>